<?xml version="1.0" encoding="UTF-8"?>
<svg xmlns="http://www.w3.org/2000/svg" viewBox="0 0 735 502" width="735" height="502">
<rect width="735" height="502" fill="#F8F4EC"/>
<g transform="translate(0,502) scale(0.1,-0.1)" fill="#2D4A2A" stroke="none">
<path d="M3133 4090 c-60 -12 -93 -32 -145 -88 -57 -60 -93 -129 -120 -230 -29 -106 -31 -344 -4 -447 57 -215 183 -334 367 -343 271 -14 449 211 410 518 -15 114 -60 257 -109 340 -46 80 -143 180 -202 210 -39 20 -136 52 -150 49 -3 -1 -24 -5 -47 -9z m154 -92 c25 -12 73 -53 108 -90 209 -221 247 -634 71 -784 -81 -69 -223 -94 -329 -58 -88 30 -162 124 -203 259 -26 86 -26 354 0 440 39 130 115 232 191 255 42 13 110 4 162 -22z"/><path d="M3124 3980 c-24 -9 -78 -69 -98 -108 -55 -106 -83 -284 -66 -413 14 -109 48 -226 68 -234 31 -12 36 13 14 82 -12 37 -26 106 -32 152 -29 220 61 481 167 481 50 0 94 -22 135 -68 42 -47 68 -54 68 -19 0 29 -72 101 -122 122 -40 16 -100 19 -134 5z"/><path d="M4134 4022 c-157 -55 -321 -238 -388 -434 -92 -270 -27 -478 182 -580 62 -30 74 -33 167 -33 114 0 153 15 231 87 122 113 205 338 207 563 1 119 -15 192 -57 271 -67 126 -200 175 -342 126z m211 -76 c113 -61 157 -302 95 -526 -75 -270 -173 -379 -342 -380 -131 0 -251 73 -298 181 -110 257 125 696 400 748 56 10 94 4 145 -23z"/><path d="M4161 3905 c-71 -31 -211 -174 -253 -257 -75 -152 -82 -172 -86 -259 -5 -97 11 -163 52 -214 20 -25 26 -27 39 -17 14 12 12 19 -14 69 -73 138 -13 347 151 526 70 76 126 113 186 122 34 6 45 3 71 -19 17 -14 38 -26 47 -26 27 0 18 36 -15 64 -25 21 -40 26 -87 26 -31 -1 -72 -7 -91 -15z"/><path d="M2372 3385 c-65 -29 -108 -73 -146 -147 -54 -108 -69 -194 -63 -363 11 -282 88 -457 239 -541 50 -27 60 -29 163 -29 92 1 120 4 169 24 77 31 151 100 185 171 24 51 26 65 25 190 0 117 -4 147 -27 223 -64 209 -191 383 -332 454 -63 32 -164 41 -213 18z m184 -80 c133 -67 255 -246 305 -447 30 -119 24 -273 -12 -343 -48 -93 -155 -148 -291 -148 -165 0 -270 117 -314 352 -24 127 -15 353 17 439 58 155 168 211 295 147z"/><path d="M2424 3280 c-11 -4 -37 -27 -56 -49 -113 -133 -116 -456 -5 -680 12 -25 28 -47 34 -49 26 -8 24 29 -5 105 -87 226 -79 486 17 595 34 38 40 40 72 34 20 -3 55 -22 78 -42 41 -35 71 -40 71 -10 0 18 -65 75 -106 92 -37 16 -69 17 -100 4z"/><path d="M4890 3264 c-171 -46 -372 -235 -451 -423 -111 -267 -54 -426 186 -516 144 -54 260 -42 349 36 114 100 210 384 210 619 1 116 -10 157 -55 220 -53 73 -129 94 -239 64z m181 -92 c37 -42 53 -123 46 -238 -7 -109 -18 -158 -58 -284 -54 -165 -98 -233 -172 -269 -50 -24 -119 -27 -192 -7 -148 39 -229 106 -240 199 -8 63 13 169 48 249 94 212 326 396 486 385 46 -3 59 -9 82 -35z"/><path d="M4877 3130 c-93 -36 -237 -169 -297 -273 -68 -117 -91 -277 -50 -344 20 -34 74 -68 90 -58 20 12 9 40 -23 60 l-32 21 0 90 c0 85 3 95 39 169 29 59 59 99 120 160 99 100 159 137 228 141 58 3 77 16 58 39 -17 20 -74 18 -133 -5z"/><path d="M3540 2884 c-124 -34 -177 -94 -179 -204 l-1 -45 -178 -92 -177 -91 -3 -59 c-6 -112 27 -221 85 -274 37 -35 42 -36 213 -54 80 -8 172 -21 204 -30 145 -38 237 -121 281 -251 l22 -66 36 64 c71 126 121 151 262 133 47 -7 54 -5 94 26 85 66 131 202 131 388 0 300 -122 473 -385 547 -85 24 -331 29 -405 8z m375 -72 c252 -69 349 -206 349 -487 -1 -122 -20 -213 -60 -282 -28 -49 -50 -63 -95 -63 -63 0 -128 62 -166 160 -27 71 -24 312 6 450 29 134 29 130 8 144 -31 19 -52 -22 -78 -151 -45 -234 -27 -448 47 -557 26 -38 26 -40 9 -50 -10 -6 -37 -28 -60 -48 -23 -21 -47 -38 -53 -38 -6 0 -18 13 -26 29 -20 38 -100 107 -158 137 -73 37 -180 62 -335 78 -78 8 -151 20 -163 26 -26 14 -47 56 -61 119 -9 42 -8 54 5 73 9 12 16 32 16 44 0 28 3 31 162 113 78 41 143 82 152 96 9 14 16 45 16 72 0 89 46 130 175 153 72 13 229 4 310 -18z"/><path d="M3552 2775 c-58 -30 -92 -76 -72 -100 13 -15 40 -9 40 9 0 6 19 24 42 39 36 23 52 27 118 27 41 0 89 -4 107 -9 24 -7 35 -6 44 5 10 12 9 18 -3 31 -12 11 -44 16 -119 20 -98 4 -107 3 -157 -22z"/><path d="M3496 2577 c-30 -30 -31 -36 -13 -61 21 -28 87 -32 120 -6 15 12 27 27 27 34 0 21 -35 46 -73 53 -29 4 -40 1 -61 -20z"/><path d="M2896 2233 c-315 -366 -362 -699 -135 -947 60 -66 136 -118 228 -156 77 -32 193 -60 245 -60 34 0 35 0 25 33 -15 47 -12 132 5 165 29 57 134 127 238 161 59 19 113 65 136 115 29 61 30 169 2 260 l-21 66 -54 -6 c-75 -9 -130 13 -188 75 -25 27 -59 58 -76 70 -33 24 -142 51 -208 51 l-42 0 -36 112 c-20 62 -40 119 -44 126 -6 10 -27 -8 -75 -65z m79 -153 l29 -90 81 0 c121 0 173 -19 228 -83 46 -54 117 -100 174 -112 42 -9 103 -70 110 -110 7 -42 -12 -108 -42 -143 -14 -17 -53 -40 -97 -57 -182 -71 -277 -169 -278 -287 0 -26 -4 -49 -8 -52 -15 -9 -185 54 -245 91 -84 51 -156 128 -197 209 -31 62 -34 79 -38 170 -4 110 7 168 54 270 47 102 168 284 190 284 5 0 23 -40 39 -90z"/><path d="M2830 1928 c-22 -35 -52 -100 -66 -146 -35 -108 -32 -228 8 -312 30 -66 102 -150 128 -150 34 0 27 25 -21 78 -111 122 -120 302 -23 479 15 26 33 55 40 64 21 23 17 49 -6 49 -14 0 -33 -20 -60 -62z"/><path d="M3266 1804 c-13 -33 -6 -44 27 -44 30 0 67 15 57 22 -20 16 -61 38 -69 38 -5 0 -12 -7 -15 -16z"/><path d="M4366 2155 c-3 -8 0 -29 6 -47 28 -81 81 -139 244 -266 115 -90 158 -142 180 -220 14 -48 15 -66 5 -120 -43 -231 -146 -313 -446 -353 -66 -9 -168 -9 -385 -3 -162 5 -361 9 -442 9 l-148 -1 0 26 c0 29 28 75 59 96 12 9 68 22 125 29 114 15 156 29 202 68 40 34 64 84 80 169 23 121 72 190 163 230 62 28 202 33 361 15 133 -15 154 -11 148 27 -3 23 -23 28 -173 45 -128 14 -239 14 -284 -1 -99 -32 -125 -44 -166 -80 -56 -49 -89 -106 -105 -178 -25 -115 -33 -136 -63 -168 -35 -37 -107 -62 -174 -62 -77 0 -133 -20 -178 -64 -49 -46 -65 -92 -65 -179 l0 -58 53 8 c55 8 174 9 687 2 294 -3 321 -2 414 18 111 25 224 74 279 123 42 37 98 146 117 228 18 78 9 197 -19 251 -32 62 -100 131 -216 222 -134 104 -157 130 -194 222 -12 30 -54 38 -65 12z"/><path d="M4055 1735 c-70 -28 -126 -84 -144 -145 -26 -88 19 -109 48 -22 23 66 49 94 113 122 43 18 66 21 166 19 90 -2 117 0 120 11 10 29 -30 40 -137 40 -89 0 -116 -4 -166 -25z"/>
</g>
</svg>
